<svg width="501" height="501" viewBox="0 0 501 501" fill="none" xmlns="http://www.w3.org/2000/svg">
<path d="M250.5 0C319.717 0 382.342 28.0824 427.696 73.4361C472.918 118.658 501 181.283 501 250.5C501 319.717 472.918 382.342 427.696 427.696C382.342 472.918 319.717 501 250.5 501C181.283 501 118.658 472.918 73.3042 427.696C28.0824 382.342 0 319.717 0 250.5C0 181.283 28.0824 118.658 73.4361 73.4361C118.658 28.0824 181.283 0 250.5 0Z" fill="#33CC66"/>
<g filter="url(#filter0_d_807_10096)">
<path fill-rule="evenodd" clip-rule="evenodd" d="M99.9363 363.489L70.4037 425.191L131.183 396.054C163.616 422.686 205.146 438.639 250.5 438.639C302.446 438.639 349.513 417.544 383.529 383.529C417.676 349.513 438.639 302.446 438.639 250.5C438.639 198.554 417.544 151.487 383.529 117.471C349.513 83.3242 302.446 62.3613 250.5 62.3613C198.554 62.3613 151.487 83.456 117.471 117.471C83.4561 151.487 62.3613 198.554 62.3613 250.5C62.3613 292.953 76.3366 331.978 99.9363 363.489Z" fill="white"/>
</g>
<path d="M121.426 178.119V202.509H169.021C179.569 202.509 184.842 199.741 184.842 194.335V186.82C184.842 181.019 179.964 178.119 170.076 178.119H121.426ZM120.635 235.206H172.317C182.337 235.206 187.216 232.701 187.216 227.428V220.308C187.216 214.507 181.151 211.475 169.021 211.475H120.635V235.206ZM196.049 192.358C196.049 199.213 192.489 203.96 185.238 206.728C194.071 209.497 198.422 214.639 198.422 222.286V225.977C198.422 238.107 189.721 244.172 172.317 244.172H113.252C110.879 244.172 109.824 242.985 109.824 240.48V172.845C109.824 170.604 111.011 169.417 113.252 169.417H169.681C187.347 169.417 196.049 175.746 196.049 188.402V192.358Z" fill="#25964B"/>
<path d="M223.868 178.778C223.868 182.338 221.495 184.183 216.617 184.183C212.134 184.183 209.761 182.338 209.761 178.778C209.761 175.086 212.002 173.241 216.617 173.241C221.363 173.241 223.868 175.086 223.868 178.778ZM222.022 240.085C222.022 243.117 220.308 244.699 216.88 244.699C213.584 244.699 212.002 243.117 212.002 240.085V194.731C212.002 191.698 213.584 190.248 216.749 190.248C220.308 190.248 222.154 191.83 222.154 194.731L222.022 240.085Z" fill="#25964B"/>
<path d="M247.863 240.085C247.863 243.117 246.149 244.699 242.721 244.699C239.294 244.699 237.448 243.117 237.448 240.085V173.372C237.448 170.34 239.162 168.758 242.59 168.758C246.149 168.758 247.863 170.34 247.863 173.372V240.085Z" fill="#25964B"/>
<path d="M275.154 178.778C275.154 182.338 272.781 184.183 267.903 184.183C263.421 184.183 261.047 182.338 261.047 178.778C261.047 175.086 263.289 173.241 267.903 173.241C272.781 173.241 275.154 175.086 275.154 178.778ZM273.441 240.085C273.441 243.117 271.727 244.699 268.299 244.699C265.003 244.699 263.289 243.117 263.289 240.085V194.731C263.289 191.698 264.871 190.248 268.035 190.248C271.595 190.248 273.441 191.83 273.441 194.731V240.085Z" fill="#25964B"/>
<path d="M391.307 240.084C391.307 243.117 389.857 244.567 386.825 244.567H383.66C380.628 244.567 379.178 243.117 379.178 240.084V206.728C379.178 202.509 374.695 200.532 365.73 200.532H357.819C349.909 200.532 345.954 203.037 345.954 208.311V240.084C345.954 243.117 344.503 244.567 341.471 244.567H338.307C335.406 244.567 333.824 243.117 333.824 240.084V208.179C333.824 205.014 332.638 202.773 330.396 201.587C328.814 200.796 326.177 200.4 322.618 200.4H314.707C305.083 200.4 300.336 202.509 300.336 206.728V239.953C300.336 242.985 298.886 244.435 295.985 244.435H292.821C289.921 244.435 288.339 242.985 288.339 239.953V207.915C288.339 196.181 297.04 190.248 314.443 190.248H322.618C329.21 190.248 335.143 191.83 340.153 194.863C345.294 191.698 351.095 190.248 357.688 190.248H365.994C382.738 190.248 391.044 196.181 391.044 207.915V240.084H391.307Z" fill="#25964B"/>
<path d="M139.489 265.662C126.964 265.662 120.768 268.562 120.768 274.495V312.466C120.768 319.322 127.623 322.75 141.335 322.75H182.997C185.634 322.75 187.084 324.068 187.084 326.968C187.084 330.133 185.766 331.583 182.997 331.583H139.753C119.713 331.583 109.693 325.255 109.693 312.861V274.363C109.693 262.761 119.449 256.828 139.094 256.828H182.997C185.634 256.828 187.084 258.279 187.084 261.179C187.084 264.08 185.766 265.662 182.997 265.662H139.489Z" fill="#25964B"/>
<path d="M210.948 327.628C210.948 330.792 209.234 332.242 205.806 332.242C202.378 332.242 200.532 330.792 200.532 327.628V260.916C200.532 257.751 202.246 256.301 205.674 256.301C209.234 256.301 210.948 257.751 210.948 260.916V327.628Z" fill="#25964B"/>
<path d="M269.353 300.204H246.808C238.634 300.204 234.547 302.841 234.547 307.983V315.762C234.547 320.64 238.898 323.013 247.468 323.013H256.697C265.003 323.013 269.222 319.322 269.222 311.938L269.353 300.204ZM279.373 314.971C279.373 326.177 271.199 331.715 254.983 331.715H249.709C232.701 331.715 224 326.309 224 315.63V308.115C224 297.04 232.438 291.503 249.05 291.503H269.222C268.562 285.834 264.343 283.065 256.565 283.065H243.908C241.403 283.065 240.216 281.615 240.216 278.582C240.216 275.814 241.403 274.363 243.908 274.363H254.983C271.199 274.363 279.373 280.033 279.373 291.503V314.971Z" fill="#25964B"/>
<path d="M336.857 316.553C336.857 326.705 329.605 331.715 315.103 331.715H292.294C289.262 331.715 287.679 330.264 287.679 327.496C287.679 324.463 289.262 323.013 292.294 323.013H316.948C323.145 323.013 326.309 320.772 326.309 316.553V313.125C326.309 308.906 322.749 306.797 315.762 306.797H312.466C296.381 306.797 288.207 301.918 288.207 292.162V288.471C288.207 279.242 295.854 274.495 311.279 274.495H323.54C326.573 274.495 328.023 275.946 328.023 278.846C328.023 281.747 326.573 283.197 323.54 283.197H308.906C302.05 283.197 298.622 285.043 298.622 288.602V292.162C298.622 296.381 302.709 298.49 310.752 298.49H314.443C329.342 298.49 336.857 303.369 336.857 313.257V316.553Z" fill="#25964B"/>
<path d="M391.307 316.553C391.307 326.705 384.056 331.715 369.554 331.715H346.745C343.581 331.715 342.13 330.264 342.13 327.496C342.13 324.463 343.581 323.013 346.745 323.013H371.399C377.596 323.013 380.76 320.772 380.76 316.553V313.125C380.76 308.906 377.332 306.797 370.213 306.797H367.049C350.964 306.797 342.79 301.918 342.79 292.162V288.471C342.79 279.242 350.436 274.495 365.73 274.495H377.991C381.024 274.495 382.474 275.946 382.474 278.846C382.474 281.747 381.024 283.197 377.991 283.197H363.357C356.501 283.197 353.073 285.043 353.073 288.602V292.162C353.073 296.381 357.16 298.49 365.203 298.49H368.894C383.924 298.49 391.439 303.369 391.439 313.257V316.553H391.307Z" fill="#25964B"/>
<defs>
<filter id="filter0_d_807_10096" x="37.3613" y="37.3613" width="426.277" height="426.277" filterUnits="userSpaceOnUse" color-interpolation-filters="sRGB">
<feFlood flood-opacity="0" result="BackgroundImageFix"/>
<feColorMatrix in="SourceAlpha" type="matrix" values="0 0 0 0 0 0 0 0 0 0 0 0 0 0 0 0 0 0 127 0" result="hardAlpha"/>
<feOffset/>
<feGaussianBlur stdDeviation="12.5"/>
<feComposite in2="hardAlpha" operator="out"/>
<feColorMatrix type="matrix" values="0 0 0 0 0 0 0 0 0 0 0 0 0 0 0 0 0 0 0.25 0"/>
<feBlend mode="normal" in2="BackgroundImageFix" result="effect1_dropShadow_807_10096"/>
<feBlend mode="normal" in="SourceGraphic" in2="effect1_dropShadow_807_10096" result="shape"/>
</filter>
</defs>
</svg>
